Hanif_Medium_2_5_grf.mot
version=1
nRows=53
nColumns=19
inDegrees=yes
endheader
time	right_ground_force_vx	right_ground_force_vy	right_ground_force_vz	right_ground_force_px	right_ground_force_py	right_ground_force_pz	right_ground_torque_x	right_ground_torque_y	right_ground_torque_z	left_ground_force_vx	left_ground_force_vy	left_ground_force_vz	left_ground_force_px	left_ground_force_py	left_ground_force_pz	left_ground_torque_x	left_ground_torque_y	left_ground_torque_z
0.200000	3.009270	262.076000	57.066500	0.188875	0.000000	-1.454860	-13.390600	1.870160	-2.680100	-7.112360	278.004000	-58.340800	0.216887	0.000000	-0.960466	16.039300	-1.091650	5.216400
0.205000	2.897480	263.021000	57.232300	0.189027	0.000000	-1.455560	-13.254700	1.917180	-2.637420	-7.113200	277.426000	-58.501900	0.216812	0.000000	-0.960551	16.030800	-1.128440	5.195900
0.210000	2.662210	265.465000	57.359400	0.188790	0.000000	-1.455460	-13.405800	1.950350	-2.722540	-6.957100	276.185000	-58.342900	0.217052	0.000000	-0.960610	15.974600	-1.130700	5.243180
0.215000	2.839440	264.866000	57.212100	0.189078	0.000000	-1.454710	-13.573000	1.950790	-2.637990	-7.336980	277.884000	-58.679900	0.216583	0.000000	-0.960664	16.092900	-1.220730	5.160650
0.220000	3.295630	263.639000	57.608700	0.187783	0.000000	-1.454550	-13.549800	2.072890	-2.958870	-7.065340	279.182000	-58.154700	0.216093	0.000000	-0.960623	16.152800	-1.244080	5.031640
0.225000	3.201050	265.249000	57.309000	0.187651	0.000000	-1.454790	-13.568200	2.095810	-3.011070	-7.053380	277.504000	-58.851600	0.215662	0.000000	-0.961369	16.259100	-1.088560	4.859780
0.230000	3.669980	264.858000	57.574700	0.187202	0.000000	-1.455430	-13.377200	2.123740	-3.128580	-6.878710	279.063000	-58.313100	0.214815	0.000000	-0.960072	15.986800	-1.186840	4.644940
0.235000	3.955760	265.392000	57.567500	0.186889	0.000000	-1.455390	-13.415200	2.113720	-3.228280	-6.901580	278.139000	-58.939200	0.214498	0.000000	-0.960069	15.935400	-1.265400	4.565130
0.240000	4.004890	266.917000	58.059000	0.186535	0.000000	-1.456230	-13.266100	2.272710	-3.313040	-6.797480	279.791000	-59.136200	0.213342	0.000000	-0.959992	16.005900	-1.289110	4.254030
0.245000	4.474200	266.601000	57.921800	0.185007	0.000000	-1.456020	-13.302700	2.370390	-3.719480	-6.870170	279.867000	-59.150400	0.212267	0.000000	-0.959505	15.875600	-1.397930	3.964050
0.250000	5.061470	266.158000	57.688300	0.184966	0.000000	-1.456440	-13.167900	2.337710	-3.737010	-7.083100	279.080000	-58.877600	0.211595	0.000000	-0.959464	15.821100	-1.402130	3.760030
0.255000	5.231870	266.092000	58.271300	0.183453	0.000000	-1.456650	-13.107800	2.368380	-4.152200	-6.349410	281.012000	-59.622600	0.210801	0.000000	-0.958724	15.715900	-1.518830	3.569060
0.260000	5.416600	265.681000	57.732300	0.182666	0.000000	-1.455970	-13.266300	2.473710	-4.344040	-6.081680	281.737000	-59.340400	0.209623	0.000000	-0.958075	15.572500	-1.677600	3.255350
0.265000	5.747440	266.084000	57.823700	0.182151	0.000000	-1.456450	-13.158000	2.537640	-4.483940	-5.464950	280.223000	-59.373400	0.208329	0.000000	-0.958603	15.630200	-1.712960	2.865990
0.270000	5.763790	265.625000	57.786000	0.180570	0.000000	-1.456130	-13.222100	2.598030	-4.902810	-5.308260	280.074000	-59.349200	0.207225	0.000000	-0.957567	15.329200	-1.729080	2.542150
0.275000	6.054090	264.610000	57.885500	0.179778	0.000000	-1.456650	-13.032200	2.675500	-5.087140	-4.907790	280.372000	-59.225300	0.206358	0.000000	-0.957406	15.297000	-1.817020	2.302230
0.280000	6.168500	263.895000	57.676900	0.179615	0.000000	-1.457080	-12.878000	2.780700	-5.094700	-4.457260	278.872000	-59.303500	0.205657	0.000000	-0.957757	15.308600	-1.831150	2.090190
0.285000	6.630420	265.729000	57.212600	0.178821	0.000000	-1.456670	-13.078800	2.682000	-5.381630	-4.332410	280.212000	-59.729100	0.204033	0.000000	-0.956664	15.074600	-1.937390	1.643950
0.290000	6.678130	263.500000	57.339000	0.177644	0.000000	-1.456940	-12.898600	2.715320	-5.650170	-4.202050	279.785000	-59.257600	0.202655	0.000000	-0.955952	14.851000	-2.008960	1.248820
0.295000	6.986080	263.905000	57.506200	0.177050	0.000000	-1.457490	-12.770600	2.851950	-5.796590	-3.837220	278.363000	-59.376300	0.201800	0.000000	-0.957259	15.136800	-2.089280	1.013870
0.300000	6.896690	263.940000	57.359000	0.177071	0.000000	-1.457270	-12.829600	2.894710	-5.781780	-3.949500	279.934000	-59.076600	0.201011	0.000000	-0.955665	14.775600	-2.066050	0.775404
0.305000	7.055770	264.448000	57.384000	0.176170	0.000000	-1.458290	-12.584600	2.893410	-6.043760	-3.770270	279.706000	-59.859400	0.199908	0.000000	-0.955790	14.798000	-2.198490	0.486164
0.310000	6.968780	263.756000	56.638600	0.175684	0.000000	-1.458150	-12.591300	2.856430	-6.167390	-3.969110	279.364000	-59.754400	0.199007	0.000000	-0.955919	14.817200	-2.214660	0.228455
0.315000	7.104470	263.142000	56.691000	0.174712	0.000000	-1.458030	-12.592900	2.916670	-6.408170	-3.289000	280.250000	-60.007700	0.198418	0.000000	-0.954945	14.584300	-2.194150	0.042792
0.320000	7.037510	263.236000	56.435100	0.174092	0.000000	-1.458780	-12.398800	2.984150	-6.564980	-2.701810	280.731000	-60.058800	0.197254	0.000000	-0.955596	14.787600	-2.346550	-0.273760
0.325000	7.074770	262.957000	56.922400	0.173498	0.000000	-1.458680	-12.412000	2.966670	-6.725710	-2.517290	279.594000	-59.906400	0.196252	0.000000	-0.955990	14.836300	-2.371010	-0.559297
0.330000	7.451200	262.881000	56.907700	0.173212	0.000000	-1.457670	-12.673200	2.983860	-6.804200	-2.334910	278.848000	-59.927200	0.195618	0.000000	-0.955209	14.577300	-2.382610	-0.740146
0.335000	7.703940	261.495000	56.827400	0.172971	0.000000	-1.458270	-12.451200	2.939170	-6.843000	-1.722780	278.545000	-60.105100	0.195350	0.000000	-0.955389	14.606900	-2.489990	-0.798890
0.340000	7.837370	261.835000	56.651400	0.172360	0.000000	-1.458520	-12.400300	2.965590	-7.014740	-2.093630	281.043000	-59.774800	0.194487	0.000000	-0.954790	14.572400	-2.551960	-1.053520
0.345000	7.672880	262.211000	56.524000	0.172022	0.000000	-1.458240	-12.493200	2.965470	-7.116670	-2.084040	280.224000	-59.480000	0.194224	0.000000	-0.954999	14.588700	-2.555260	-1.126240
0.350000	7.698370	261.558000	56.473800	0.172334	0.000000	-1.459190	-12.213700	2.893560	-7.026700	-1.802090	279.667000	-59.109000	0.192970	0.000000	-0.955906	14.810700	-2.584620	-1.487550
0.355000	7.250160	261.618000	56.119700	0.171775	0.000000	-1.458390	-12.425800	2.980020	-7.158690	-1.828510	279.969000	-58.788600	0.192867	0.000000	-0.955392	14.683200	-2.617200	-1.515370
0.360000	7.293630	259.825000	55.803700	0.172386	0.000000	-1.458620	-12.280700	2.905160	-6.955950	-2.091980	279.076000	-58.621300	0.192248	0.000000	-0.955607	14.698600	-2.640220	-1.681280
0.365000	7.097530	259.848000	55.405100	0.172019	0.000000	-1.458410	-12.338500	2.891960	-7.056760	-2.391470	279.384000	-58.567700	0.192347	0.000000	-0.955521	14.693400	-2.643030	-1.651710
0.370000	6.857170	257.993000	55.199100	0.172054	0.000000	-1.458000	-12.360300	2.740920	-7.023980	-2.349530	279.029000	-57.827700	0.192656	0.000000	-0.955777	14.745700	-2.602760	-1.572160
0.375000	6.852410	258.738000	54.888000	0.172240	0.000000	-1.457510	-12.520700	2.833040	-6.975250	-2.433610	279.085000	-57.582000	0.192258	0.000000	-0.955799	14.755400	-2.603340	-1.689110
0.380000	6.671130	260.121000	54.596000	0.172412	0.000000	-1.458150	-12.421300	2.772990	-6.977350	-2.216530	279.445000	-57.847300	0.192843	0.000000	-0.956060	14.844900	-2.503910	-1.542970
0.385000	6.781200	259.969000	54.967000	0.173579	0.000000	-1.457260	-12.644300	2.808100	-6.651960	-2.684630	281.610000	-57.558700	0.193223	0.000000	-0.957126	15.264200	-2.525050	-1.442380
0.390000	7.760730	261.522000	54.659600	0.172876	0.000000	-1.458130	-12.490600	2.795660	-6.896710	-2.942860	279.457000	-57.303600	0.192906	0.000000	-0.957656	15.297800	-2.494220	-1.521510
0.395000	8.259550	262.461000	54.893600	0.173484	0.000000	-1.457130	-12.795400	2.811600	-6.760200	-3.433270	279.200000	-57.465700	0.193166	0.000000	-0.956397	14.936100	-2.458990	-1.445110
0.400000	8.829800	262.387000	54.955800	0.173058	0.000000	-1.457450	-12.709900	2.785300	-6.885770	-3.497120	279.148000	-56.815800	0.193011	0.000000	-0.958168	15.429100	-2.535550	-1.476440
0.405000	8.697330	260.540000	55.127500	0.172647	0.000000	-1.457870	-12.512400	2.784710	-6.945040	-3.707840	276.372000	-56.470300	0.192726	0.000000	-0.957921	15.208300	-2.416550	-1.558810
0.410000	9.020710	261.016000	55.069100	0.172785	0.000000	-1.458740	-12.312300	2.628220	-6.955120	-4.264450	274.831000	-55.661000	0.192905	0.000000	-0.957916	15.125900	-2.316910	-1.513250
0.415000	9.038610	260.002000	55.598900	0.172351	0.000000	-1.457930	-12.473500	2.696060	-7.033970	-4.844570	271.337000	-54.819000	0.193271	0.000000	-0.958992	15.232300	-2.318030	-1.377310
0.420000	9.209060	258.725000	55.059100	0.172411	0.000000	-1.457750	-12.459400	2.639220	-6.994270	-5.643870	269.047000	-54.149300	0.192730	0.000000	-0.958813	15.062500	-2.280830	-1.512660
0.425000	8.596840	256.893000	54.760900	0.172663	0.000000	-1.458630	-12.148100	2.545660	-6.886000	-5.838860	264.881000	-52.813000	0.193259	0.000000	-0.959576	15.034200	-2.210610	-1.349830
0.430000	8.692220	256.765000	55.005900	0.172727	0.000000	-1.458210	-12.252800	2.430720	-6.892430	-7.195370	260.986000	-51.007300	0.193079	0.000000	-0.959336	14.762700	-2.115800	-1.382670
0.435000	7.719980	252.766000	54.100300	0.172229	0.000000	-1.457770	-12.177600	2.319360	-6.924430	-7.748410	255.312000	-49.481700	0.192961	0.000000	-0.960056	14.634600	-2.133070	-1.365610
0.440000	6.708590	250.993000	53.591200	0.172933	0.000000	-1.457610	-12.134300	2.244090	-6.693640	-8.170680	249.122000	-47.476100	0.193510	0.000000	-0.960455	14.386800	-2.078860	-1.189920
0.445000	5.894580	247.364000	52.427400	0.173933	0.000000	-1.457490	-11.988300	2.120930	-6.348680	-8.603690	243.399000	-45.043700	0.192234	0.000000	-0.961194	14.242600	-2.059050	-1.481260
0.450000	4.832320	246.258000	51.410900	0.174380	0.000000	-1.456800	-12.105800	2.010320	-6.214110	-8.910310	236.886000	-42.779600	0.191544	0.000000	-0.960833	13.783300	-2.065050	-1.602330
0.455000	3.247670	242.917000	50.330200	0.176853	0.000000	-1.456510	-12.018100	1.704230	-5.544260	-9.530500	227.922000	-40.641600	0.190958	0.000000	-0.960544	13.209100	-2.058460	-1.661590
0.460000	1.398190	239.926000	48.792200	0.178315	0.000000	-1.454920	-12.253000	1.589990	-5.109080	-9.291520	220.703000	-37.862100	0.190560	0.000000	-0.961532	13.010900	-2.018810	-1.705110
